<svg width="72" height="72" viewBox="0 0 72 72" fill="none" xmlns="http://www.w3.org/2000/svg">
<path fill-rule="evenodd" clip-rule="evenodd" d="M26.2006 60.2643C26.288 60.2643 26.3755 60.2507 26.463 60.2261C49.6976 53.3953 60.5711 37.9042 65.6023 26.1136C71.046 13.3597 70.9995 2.38603 70.9968 1.92401C70.9913 1.4154 70.5812 1.00795 70.0754 1.00249H70.0179C68.1751 1.00249 24.7269 1.50838 11.7836 45.5419C11.6879 45.8701 11.7781 46.2228 12.0187 46.4635L25.5444 59.9908C25.7221 60.1686 25.9572 60.2643 26.2033 60.2643L26.2006 60.2643ZM69.1132 2.88634C68.9956 5.80952 68.2738 15.1425 63.8637 25.4483C59.0242 36.7552 48.6099 51.5847 26.4686 58.2811L13.7276 45.5385C25.6049 6.23808 62.6605 3.12715 69.1132 2.88634Z" fill="#FF0066"/>
<path fill-rule="evenodd" clip-rule="evenodd" d="M64.1341 28.0657C64.495 28.0657 64.8286 27.8552 64.9817 27.5188C71.046 14.1938 71.005 2.41644 70.9996 1.92152C70.9941 1.41291 70.584 1.00273 70.0782 1H70.0207C68.7603 1 57.3343 1.16954 44.4841 7.01865C44.1232 7.18272 43.9045 7.55735 43.9427 7.95382C44.424 13.1084 46.7069 17.9678 50.3734 21.6317C54.0399 25.2987 58.8959 27.582 64.0496 28.0632C64.0797 28.066 64.1097 28.066 64.1371 28.066L64.1341 28.0657ZM69.1132 2.88634C68.9929 5.87785 68.2381 15.5555 63.5627 26.135C59.0869 25.569 54.8897 23.5181 51.6882 20.3133C48.4838 17.1112 46.4332 12.914 45.8672 8.4373C56.4622 3.75312 66.1515 3.00387 69.1129 2.88354L69.1132 2.88634Z" fill="#FF0066"/>
<path fill-rule="evenodd" clip-rule="evenodd" d="M12.6749 46.7341C12.7515 46.7341 12.828 46.7259 12.9046 46.7041C13.2217 46.622 13.476 46.3787 13.569 46.0642C16.0789 37.5273 19.9778 30.0566 25.1509 23.8655C25.3723 23.6003 25.4298 23.2366 25.2985 22.9194C25.17 22.5994 24.8747 22.3779 24.5329 22.3424C24.0763 22.2932 23.6143 22.2713 23.1549 22.2713C19.6552 22.2713 16.3742 23.6249 13.9192 26.0832L3.43895 36.5675C3.07531 36.9312 3.07531 37.5219 3.43895 37.8855L12.0188 46.4665C12.1938 46.6443 12.4317 46.74 12.675 46.74L12.6749 46.7341ZM22.5287 24.1498C18.072 29.8594 14.6186 36.5396 12.2374 44.0488L5.41301 37.2235L15.2367 27.3986C17.1943 25.4407 19.7645 24.3001 22.5287 24.1498Z" fill="#FF0066"/>
<path fill-rule="evenodd" clip-rule="evenodd" d="M34.7804 68.8425C35.0183 68.8425 35.2562 68.7523 35.4394 68.5691L45.9224 58.0875C48.7139 55.2956 50.0755 51.4263 49.6627 47.4722C49.6272 47.1304 49.4057 46.8351 49.0858 46.7065C48.7659 46.578 48.4023 46.6327 48.137 46.8542C41.9469 52.0306 34.477 55.9273 25.9412 58.4404C25.6268 58.5334 25.3834 58.785 25.3014 59.1049C25.2194 59.4221 25.3124 59.7612 25.5448 59.9936L34.1246 68.5746C34.3051 68.755 34.5457 68.848 34.7836 68.848L34.7804 68.8425ZM47.8525 49.4769C47.7049 52.2196 46.5648 54.8064 44.6016 56.7698L34.778 66.5947L27.9536 59.7694C35.4639 57.3877 42.1413 53.9313 47.8501 49.4769H47.8525Z" fill="#FF0066"/>
<path fill-rule="evenodd" clip-rule="evenodd" d="M23.048 63.4145C23.2859 63.4145 23.5238 63.3242 23.7069 63.141L26.8594 59.9882C27.0344 59.8131 27.1328 59.5753 27.1328 59.3291C27.1328 59.083 27.0344 58.8451 26.8594 58.6701L13.3338 45.1427C12.9838 44.7927 12.3659 44.7927 12.0159 45.1427L8.86345 48.2956C8.49981 48.6593 8.49981 49.25 8.86345 49.6136L22.3891 63.141C22.5696 63.3215 22.8101 63.4145 23.048 63.4145ZM24.8826 59.3319L23.048 61.1667L10.8404 48.9575L12.675 47.1227L24.8826 59.3347V59.3319Z" fill="#FF0066"/>
<path fill-rule="evenodd" clip-rule="evenodd" d="M1.93781 71C1.99522 71 2.0499 70.9945 2.10732 70.9836C14.14 68.7495 16.2076 63.606 16.5352 61.5003C16.5817 61.2049 16.4833 60.9069 16.2727 60.6991L11.302 55.7278C11.0915 55.5172 10.7935 55.4188 10.4982 55.4652C8.39293 55.7961 3.25243 57.8634 1.01611 69.895C0.958694 70.1958 1.05713 70.5075 1.27312 70.7235C1.45084 70.9013 1.68872 70.997 1.93206 70.997L1.93781 71ZM14.5997 61.656C14.1459 63.2803 12.1144 66.9117 3.12981 68.8775C5.09566 59.8919 8.7266 57.8604 10.3504 57.4033L14.602 61.6554L14.5997 61.656Z" fill="#FF0066"/>
<path fill-rule="evenodd" clip-rule="evenodd" d="M59.2945 16.4879C60.3033 16.4879 61.2521 16.0942 61.9657 15.3805C63.4394 13.9066 63.4394 11.5085 61.9657 10.0346C61.2521 9.32088 60.3033 8.92711 59.2945 8.92711C58.2856 8.92711 57.3368 9.32088 56.6232 10.0346C55.1495 11.5085 55.1495 13.9066 56.6232 15.3805C57.3368 16.0942 58.2856 16.4879 59.2945 16.4879ZM59.2945 10.792C59.8057 10.792 60.287 10.9916 60.6479 11.3526C61.3943 12.0991 61.3943 13.3159 60.6479 14.0624C59.9233 14.7871 58.6629 14.7871 57.9383 14.0624C57.1919 13.3159 57.1919 12.0991 57.9383 11.3526C58.302 10.9916 58.7831 10.792 59.2945 10.792Z" fill="#FF0066"/>
<path fill-rule="evenodd" clip-rule="evenodd" d="M35.234 48.2434C38.299 48.2434 41.178 47.0512 43.3463 44.8827C45.5118 42.7169 46.7066 39.8349 46.7066 36.7693C46.7066 33.7038 45.5145 30.8246 43.3463 28.656C41.1808 26.4902 38.2991 25.2953 35.234 25.2953C32.1689 25.2953 29.29 26.4875 27.1217 28.656C22.6486 33.1296 22.6486 40.4088 27.1217 44.8827C29.2872 47.0485 32.1689 48.2434 35.234 48.2434ZM35.234 27.1606C37.8014 27.1606 40.2129 28.1614 42.0283 29.9744C43.8438 31.7901 44.8417 34.2019 44.8417 36.7696C44.8417 39.3373 43.841 41.7491 42.0283 43.5648C40.2128 45.3777 37.8013 46.3785 35.234 46.3785C32.6666 46.3785 30.2551 45.3777 28.4397 43.5648C24.6939 39.8185 24.6939 33.7209 28.4397 29.9744C30.2552 28.1586 32.6667 27.1606 35.234 27.1606Z" fill="#FF0066"/>
<path fill-rule="evenodd" clip-rule="evenodd" d="M35.2312 42.4493C36.7487 42.4493 38.1731 41.8586 39.2449 40.7867C41.4569 38.5744 41.4569 34.9704 39.2449 32.758C38.1732 31.6861 36.7459 31.0955 35.2312 31.0955C33.7164 31.0955 32.2893 31.6861 31.2174 32.758C30.1456 33.83 29.5551 35.2574 29.5551 36.7723C29.5551 38.29 30.1457 39.7146 31.2174 40.7865C32.2892 41.8585 33.7164 42.4493 35.2312 42.4493ZM35.2312 32.9575C36.251 32.9575 37.208 33.354 37.9298 34.076C39.4172 35.5635 39.4172 37.9836 37.9298 39.4711C37.2108 40.1903 36.2511 40.5896 35.2312 40.5896C34.2141 40.5896 33.2544 40.1931 32.5353 39.4711C31.8162 38.7492 31.417 37.7922 31.417 36.7722C31.417 35.7549 31.8135 34.7951 32.5353 34.0759C33.2543 33.354 34.214 32.9575 35.2312 32.9575Z" fill="#FF0066"/>
<path fill-rule="evenodd" clip-rule="evenodd" d="M17.0901 63.7645C17.3362 63.7645 17.5741 63.666 17.7491 63.491L20.9015 60.3382C21.2652 59.9745 21.2652 59.3838 20.9015 59.0202L12.9859 51.1035C12.6222 50.7398 12.0317 50.7398 11.668 51.1035L8.51558 54.2564C8.34059 54.4314 8.24216 54.6693 8.24216 54.9154C8.24216 55.1615 8.34059 55.3994 8.51558 55.5744L16.4333 63.4911C16.6083 63.6661 16.8462 63.7645 17.0922 63.7645L17.0901 63.7645ZM18.9247 59.6792L17.0901 61.514L10.4899 54.913L12.3245 53.0781L18.922 59.6792H18.9247Z" fill="#FF0066"/>
<path fill-rule="evenodd" clip-rule="evenodd" d="M8.56834 64.3714C8.62576 64.3714 8.68045 64.3659 8.73786 64.355C11.513 63.8382 13.96 63.1218 16.0053 62.2248C16.287 62.1018 16.4893 61.8475 16.5467 61.5439C16.6041 61.2404 16.5084 60.9314 16.2897 60.7126L11.2944 55.7167C11.0757 55.498 10.7667 55.4023 10.4632 55.4597C10.1598 55.5171 9.90548 55.7195 9.78245 56.0011C8.88288 58.0465 8.16657 60.4939 7.65253 63.2695C7.59511 63.5703 7.69354 63.8821 7.90954 64.0981C8.08726 64.2758 8.325 64.3714 8.56834 64.3714ZM13.9765 61.0353C12.7079 61.5057 11.2943 61.9104 9.75776 62.2495C10.0968 60.7127 10.5014 59.299 10.9717 58.0302L13.9765 61.0353Z" fill="#FF0066"/>
<path d="M69.1132 2.88634C68.9956 5.80952 68.2738 15.1425 63.8637 25.4483C59.0242 36.7552 48.6099 51.5847 26.4686 58.2811L13.7276 45.5385C25.6049 6.23808 62.6605 3.12715 69.1132 2.88634ZM69.1132 2.88634C68.9929 5.87785 68.2381 15.5555 63.5627 26.135C59.0869 25.569 54.8897 23.5181 51.6882 20.3133C48.4838 17.1112 46.4332 12.914 45.8672 8.4373C56.4622 3.75312 66.1515 3.00387 69.1129 2.88354L69.1132 2.88634ZM26.2006 60.2643C26.288 60.2643 26.3755 60.2507 26.463 60.2261C49.6976 53.3953 60.5711 37.9042 65.6023 26.1136C71.046 13.3597 70.9995 2.38603 70.9968 1.92401C70.9913 1.4154 70.5812 1.00795 70.0754 1.00249H70.0179C68.1751 1.00249 24.7269 1.50838 11.7836 45.5419C11.6879 45.8701 11.7781 46.2228 12.0187 46.4635L25.5444 59.9908C25.7221 60.1686 25.9572 60.2643 26.2033 60.2643L26.2006 60.2643ZM64.1341 28.0657C64.495 28.0657 64.8286 27.8552 64.9817 27.5188C71.046 14.1938 71.005 2.41644 70.9996 1.92152C70.9941 1.41291 70.584 1.00273 70.0782 1H70.0207C68.7603 1 57.3343 1.16954 44.4841 7.01865C44.1232 7.18273 43.9045 7.55735 43.9427 7.95382C44.424 13.1084 46.7069 17.9678 50.3734 21.6317C54.0399 25.2987 58.8959 27.582 64.0496 28.0632C64.0797 28.066 64.1097 28.066 64.1371 28.066L64.1341 28.0657ZM12.6749 46.7341C12.7515 46.7341 12.828 46.7259 12.9046 46.7041C13.2217 46.622 13.476 46.3787 13.569 46.0642C16.0789 37.5273 19.9778 30.0566 25.1509 23.8655C25.3723 23.6003 25.4298 23.2366 25.2985 22.9194C25.17 22.5994 24.8747 22.3779 24.5329 22.3424C24.0763 22.2932 23.6143 22.2713 23.1549 22.2713C19.6552 22.2713 16.3742 23.6249 13.9192 26.0832L3.43895 36.5675C3.07531 36.9312 3.07531 37.5219 3.43895 37.8855L12.0188 46.4665C12.1938 46.6443 12.4317 46.74 12.675 46.74L12.6749 46.7341ZM22.5287 24.1498C18.072 29.8593 14.6186 36.5396 12.2374 44.0488L5.41301 37.2235L15.2367 27.3986C17.1943 25.4407 19.7645 24.3001 22.5287 24.1498ZM34.7804 68.8425C35.0183 68.8425 35.2562 68.7523 35.4394 68.5691L45.9224 58.0875C48.7139 55.2956 50.0755 51.4263 49.6627 47.4722C49.6272 47.1304 49.4057 46.8351 49.0858 46.7065C48.7659 46.578 48.4023 46.6327 48.137 46.8542C41.9469 52.0306 34.477 55.9273 25.9412 58.4404C25.6268 58.5334 25.3835 58.785 25.3014 59.1049C25.2194 59.4221 25.3124 59.7612 25.5448 59.9936L34.1246 68.5746C34.3051 68.755 34.5457 68.848 34.7836 68.848L34.7804 68.8425ZM47.8525 49.4769C47.7049 52.2196 46.5648 54.8064 44.6016 56.7698L34.778 66.5947L27.9536 59.7694C35.4639 57.3877 42.1413 53.9313 47.8501 49.4769H47.8525ZM23.048 63.4145C23.2859 63.4145 23.5238 63.3242 23.7069 63.141L26.8594 59.9882C27.0344 59.8131 27.1328 59.5753 27.1328 59.3291C27.1328 59.083 27.0344 58.8451 26.8594 58.6701L13.3338 45.1427C12.9838 44.7927 12.3659 44.7927 12.0159 45.1427L8.86345 48.2956C8.4998 48.6593 8.4998 49.25 8.86345 49.6136L22.3891 63.141C22.5696 63.3215 22.8101 63.4145 23.048 63.4145ZM24.8826 59.3319L23.048 61.1667L10.8404 48.9575L12.675 47.1227L24.8826 59.3347V59.3319ZM1.93781 71C1.99522 71 2.04991 70.9945 2.10732 70.9836C14.14 68.7495 16.2076 63.606 16.5352 61.5003C16.5817 61.2049 16.4833 60.9069 16.2727 60.6991L11.302 55.7278C11.0915 55.5172 10.7935 55.4188 10.4982 55.4652C8.39293 55.7961 3.25242 57.8634 1.01611 69.895C0.958697 70.1958 1.05713 70.5075 1.27313 70.7235C1.45085 70.9013 1.68872 70.997 1.93206 70.997L1.93781 71ZM14.5997 61.656C14.1459 63.2803 12.1144 66.9117 3.12981 68.8775C5.09566 59.8919 8.7266 57.8604 10.3504 57.4033L14.602 61.6554L14.5997 61.656ZM59.2945 16.4879C60.3033 16.4879 61.2521 16.0942 61.9657 15.3805C63.4394 13.9066 63.4394 11.5085 61.9657 10.0346C61.2521 9.32088 60.3033 8.92711 59.2945 8.92711C58.2856 8.92711 57.3368 9.32088 56.6232 10.0346C55.1495 11.5085 55.1495 13.9066 56.6232 15.3805C57.3368 16.0942 58.2856 16.4879 59.2945 16.4879ZM59.2945 10.792C59.8057 10.792 60.287 10.9916 60.6479 11.3526C61.3943 12.0991 61.3943 13.3159 60.6479 14.0624C59.9233 14.7871 58.6629 14.7871 57.9383 14.0624C57.1919 13.3159 57.1919 12.0991 57.9383 11.3526C58.302 10.9916 58.7831 10.792 59.2945 10.792ZM35.234 48.2434C38.299 48.2434 41.178 47.0512 43.3463 44.8827C45.5118 42.7169 46.7066 39.8349 46.7066 36.7693C46.7066 33.7038 45.5145 30.8246 43.3463 28.656C41.1808 26.4902 38.2991 25.2953 35.234 25.2953C32.1689 25.2953 29.29 26.4875 27.1217 28.656C22.6486 33.1296 22.6486 40.4088 27.1217 44.8827C29.2872 47.0485 32.1689 48.2434 35.234 48.2434ZM35.234 27.1606C37.8014 27.1606 40.2129 28.1614 42.0283 29.9744C43.8438 31.7901 44.8417 34.2019 44.8417 36.7696C44.8417 39.3373 43.841 41.7491 42.0283 43.5648C40.2128 45.3777 37.8013 46.3785 35.234 46.3785C32.6666 46.3785 30.2551 45.3777 28.4397 43.5648C24.6939 39.8185 24.6939 33.7209 28.4397 29.9744C30.2552 28.1586 32.6667 27.1606 35.234 27.1606ZM35.2312 42.4493C36.7487 42.4493 38.1731 41.8586 39.2449 40.7867C41.4569 38.5744 41.4569 34.9704 39.2449 32.758C38.1732 31.6861 36.7459 31.0955 35.2312 31.0955C33.7164 31.0955 32.2893 31.6861 31.2175 32.758C30.1456 33.83 29.5551 35.2574 29.5551 36.7723C29.5551 38.29 30.1457 39.7146 31.2175 40.7865C32.2892 41.8585 33.7164 42.4493 35.2312 42.4493ZM35.2312 32.9575C36.251 32.9575 37.208 33.354 37.9298 34.076C39.4172 35.5635 39.4172 37.9836 37.9298 39.4711C37.2108 40.1903 36.2511 40.5896 35.2312 40.5896C34.2141 40.5896 33.2544 40.1931 32.5353 39.4711C31.8162 38.7492 31.417 37.7922 31.417 36.7722C31.417 35.7549 31.8135 34.7951 32.5353 34.0759C33.2543 33.354 34.214 32.9575 35.2312 32.9575ZM17.0901 63.7645C17.3362 63.7645 17.5741 63.666 17.7491 63.491L20.9015 60.3382C21.2652 59.9745 21.2652 59.3838 20.9015 59.0202L12.9859 51.1035C12.6222 50.7398 12.0317 50.7398 11.668 51.1035L8.51558 54.2564C8.34059 54.4314 8.24216 54.6693 8.24216 54.9154C8.24216 55.1615 8.34059 55.3994 8.51558 55.5744L16.4333 63.4911C16.6083 63.6661 16.8462 63.7645 17.0922 63.7645L17.0901 63.7645ZM18.9247 59.6792L17.0901 61.514L10.4899 54.913L12.3245 53.0781L18.922 59.6792H18.9247ZM8.56834 64.3714C8.62576 64.3714 8.68045 64.3659 8.73786 64.355C11.513 63.8382 13.9601 63.1218 16.0053 62.2248C16.287 62.1018 16.4893 61.8475 16.5467 61.5439C16.6041 61.2404 16.5084 60.9314 16.2897 60.7126L11.2944 55.7167C11.0757 55.498 10.7667 55.4023 10.4632 55.4597C10.1598 55.5171 9.90548 55.7195 9.78245 56.0011C8.88288 58.0465 8.16657 60.4939 7.65253 63.2695C7.59511 63.5703 7.69354 63.8821 7.90954 64.0981C8.08726 64.2758 8.325 64.3714 8.56834 64.3714ZM13.9765 61.0353C12.7079 61.5057 11.2943 61.9104 9.75775 62.2495C10.0968 60.7127 10.5014 59.299 10.9717 58.0302L13.9765 61.0353Z" stroke="#FF0066"/>
</svg>
