<svg width="70" height="72" viewBox="0 0 70 72" fill="none" xmlns="http://www.w3.org/2000/svg">
<path d="M59.2097 38.6516C58.4514 37.8931 57.4322 37.4452 56.3552 37.3972C56.5712 36.7575 56.6358 36.0773 56.5442 35.409C56.4526 34.7407 56.2072 34.1022 55.8269 33.5425C55.4466 32.9829 54.9415 32.5171 54.3506 32.1812C53.7597 31.8452 53.0988 31.6479 52.4187 31.6046C52.6058 31.1267 52.7002 30.6181 52.6969 30.1055C52.6966 29.0961 52.3386 28.1187 51.6853 27.3435C51.0319 26.5683 50.1245 26.0444 49.1211 25.8631L57.9422 17.1335C58.7114 16.2263 59.1081 15.0663 59.0536 13.8834C58.9991 12.7004 58.4975 11.5809 57.6481 10.7467C56.7988 9.9126 55.6637 9.42476 54.4679 9.37992C53.2722 9.33509 52.1031 9.73653 51.1924 10.5047L33.1792 28.2902L32.8597 17.8371C32.8375 17.0292 32.5875 16.2434 32.1379 15.5687C31.6882 14.8939 31.0569 14.357 30.3152 14.0186C29.5735 13.6803 28.7509 13.5539 27.9404 13.6538C27.1299 13.7537 26.3638 14.0758 25.7286 14.5839C24.8354 15.2891 24.261 16.3159 24.1313 17.4394L21.4108 39.8753L18.5151 42.7818C17.9926 42.3166 17.309 42.0687 16.6065 42.0896C15.9041 42.1105 15.2367 42.3986 14.7434 42.894L10.3123 47.2792C10.0549 47.5314 9.85063 47.8316 9.71121 48.1625C9.57178 48.4933 9.5 48.8482 9.5 49.2066C9.5 49.5651 9.57178 49.92 9.71121 50.2508C9.85063 50.5816 10.0549 50.8819 10.3123 51.1341L29.5724 70.2046C30.0899 70.714 30.7901 71 31.5201 71C32.25 71 32.9502 70.714 33.4677 70.2046L37.8989 65.8092C38.3719 65.3434 38.657 64.7228 38.7006 64.0638C38.7442 63.4047 38.5435 62.7526 38.1359 62.2297L40.9698 59.4558L44.4014 57.8853C46.3002 57.0186 48.0276 55.8237 49.5024 54.3567L59.2097 44.7602C59.6185 44.36 59.943 43.8836 60.1645 43.3584C60.386 42.8333 60.5 42.2699 60.5 41.7008C60.5 41.1317 60.386 40.5683 60.1645 40.0432C59.943 39.518 59.6185 39.0416 59.2097 38.6414V38.6516ZM36.5386 64.4733L32.1074 68.8585C32.029 68.9362 31.9358 68.9978 31.8332 69.0399C31.7307 69.0819 31.6208 69.1036 31.5098 69.1036C31.3987 69.1036 31.2888 69.0819 31.1863 69.0399C31.0837 68.9978 30.9905 68.9362 30.9121 68.8585L11.6829 49.7981C11.6043 49.7205 11.542 49.6283 11.4995 49.5268C11.457 49.4253 11.4352 49.3165 11.4352 49.2066C11.4352 49.0968 11.457 48.988 11.4995 48.8865C11.542 48.785 11.6043 48.6928 11.6829 48.6151L16.114 44.2299C16.2738 44.075 16.488 43.9873 16.7117 43.9852C16.8211 43.9854 16.9294 44.0071 17.0303 44.0491C17.1311 44.0911 17.2225 44.1526 17.2991 44.2299L36.5695 63.3005C36.6477 63.3773 36.7098 63.4686 36.7522 63.5693C36.7945 63.6699 36.8163 63.7778 36.8163 63.8869C36.8163 63.9959 36.7945 64.1038 36.7522 64.2045C36.7098 64.3051 36.6477 64.3965 36.5695 64.4733H36.5386ZM57.8494 43.4141L48.1524 53.0105C46.8341 54.3163 45.2918 55.3798 43.5976 56.1516L40.0114 57.7935C39.9085 57.8424 39.8144 57.9078 39.7332 57.9872L36.8272 60.8733L19.896 44.1586L22.9875 41.0991C23.1406 40.9533 23.2357 40.7578 23.2554 40.5484L26.0378 17.6434C26.1145 17.0355 26.4198 16.4785 26.8928 16.0833C27.3658 15.688 27.9718 15.4836 28.5902 15.5106C29.2087 15.5376 29.7941 15.7941 30.2301 16.229C30.6661 16.6639 30.9206 17.2453 30.943 17.8575L31.3243 30.493C31.3379 30.6769 31.4017 30.8536 31.5087 31.0045C31.6158 31.1553 31.7621 31.2746 31.9323 31.3497C32.1064 31.4174 32.2968 31.4333 32.4799 31.3952C32.663 31.3572 32.8309 31.2669 32.9628 31.1355L52.5423 11.759C52.8096 11.4925 53.1273 11.2807 53.4773 11.1357C53.8273 10.9907 54.2027 10.9154 54.5821 10.9139C54.9615 10.9125 55.3375 10.9851 55.6886 11.1275C56.0397 11.2698 56.359 11.4792 56.6283 11.7437C56.8976 12.0082 57.1116 12.3226 57.2581 12.669C57.4047 13.0154 57.4808 13.3869 57.4822 13.7624C57.4837 14.1378 57.4104 14.5099 57.2665 14.8574C57.1226 15.2048 56.911 15.5208 56.6437 15.7873L41.8045 30.4726C41.6294 30.6509 41.532 30.8901 41.5332 31.1387C41.5345 31.3873 41.6344 31.6254 41.8114 31.8019C41.9883 31.9784 42.2282 32.079 42.4794 32.0822C42.7306 32.0853 42.973 31.9907 43.1544 31.8188L46.6582 28.382C47.1269 27.9721 47.7362 27.755 48.3614 27.7751C48.9866 27.7951 49.5805 28.0508 50.0215 28.4898C50.4625 28.9288 50.7173 29.518 50.7338 30.1368C50.7503 30.7557 50.5273 31.3573 50.1104 31.8188L45.5967 36.2856C45.418 36.465 45.3178 36.7067 45.3178 36.9587C45.3178 37.2106 45.418 37.4524 45.5967 37.6317C45.7762 37.808 46.0189 37.9069 46.2717 37.9069C46.5246 37.9069 46.7672 37.808 46.9467 37.6317L50.4504 34.1644C50.9287 33.6951 51.5758 33.4331 52.2493 33.436C52.9228 33.4388 53.5675 33.7063 54.0417 34.1797C54.5159 34.653 54.7807 35.2933 54.7778 35.9599C54.7749 36.6264 54.5046 37.2645 54.0263 37.7337L53.1606 38.5904L49.5539 42.1189C49.3735 42.2974 49.2722 42.5395 49.2722 42.792C49.2722 43.0445 49.3735 43.2866 49.5539 43.4651C49.7343 43.6436 49.9789 43.7439 50.234 43.7439C50.4891 43.7439 50.7338 43.6436 50.9141 43.4651L54.4076 40.0079C54.633 39.7836 54.9012 39.6059 55.1966 39.4851C55.4921 39.3642 55.8088 39.3028 56.1285 39.3042C56.448 39.3039 56.7644 39.3659 57.0597 39.4866C57.355 39.6074 57.6233 39.7845 57.8494 40.0079C58.0775 40.2325 58.2585 40.4995 58.382 40.7935C58.5055 41.0875 58.5691 41.4028 58.5691 41.7212C58.5691 42.0396 58.5055 42.3549 58.382 42.6489C58.2585 42.9429 58.0775 43.2099 57.8494 43.4345V43.4141Z" fill="#FF0066"/>
<path d="M32.9422 9.69902C33.0296 9.78877 33.1345 9.86016 33.2504 9.90892C33.3664 9.95768 33.4911 9.98281 33.6171 9.98281C33.7431 9.98281 33.8678 9.95768 33.9838 9.90892C34.0998 9.86016 34.2046 9.78877 34.2921 9.69902C34.3828 9.61245 34.4549 9.50869 34.5042 9.39392C34.5535 9.27915 34.5789 9.15574 34.5789 9.03104C34.5789 8.90634 34.5535 8.78293 34.5042 8.66816C34.4549 8.55339 34.3828 8.44963 34.2921 8.36306L30.572 4.68153C30.3925 4.50529 30.1499 4.40639 29.897 4.40639C29.6441 4.40639 29.4015 4.50529 29.222 4.68153C29.1313 4.7681 29.0592 4.87186 29.0099 4.98663C28.9607 5.10139 28.9353 5.22481 28.9353 5.34951C28.9353 5.4742 28.9607 5.59762 29.0099 5.71239C29.0592 5.82716 29.1313 5.93092 29.222 6.01749L32.9422 9.69902Z" fill="#FF0066"/>
<path d="M39.1252 8.10811C39.3794 8.10811 39.6231 8.00818 39.8028 7.83032C39.9826 7.65245 40.0835 7.41122 40.0835 7.15968V1.94843C40.0835 1.69689 39.9826 1.45565 39.8028 1.27779C39.6231 1.09992 39.3794 1 39.1252 1C38.871 1 38.6272 1.09992 38.4475 1.27779C38.2678 1.45565 38.1668 1.69689 38.1668 1.94843V7.15968C38.1668 7.41122 38.2678 7.65245 38.4475 7.83032C38.6272 8.00818 38.871 8.10811 39.1252 8.10811Z" fill="#FF0066"/>
<path d="M44.5559 9.98457C44.683 9.98563 44.809 9.96083 44.926 9.91171C45.043 9.86259 45.1485 9.79019 45.2361 9.69902L48.9562 6.01749C49.0469 5.93092 49.119 5.82716 49.1683 5.71239C49.2176 5.59762 49.243 5.4742 49.243 5.34951C49.243 5.22481 49.2176 5.10139 49.1683 4.98663C49.119 4.87186 49.0469 4.7681 48.9562 4.68153C48.7767 4.50529 48.5341 4.40639 48.2812 4.40639C48.0283 4.40639 47.7857 4.50529 47.6062 4.68153L43.8861 8.36306C43.7954 8.44963 43.7233 8.55339 43.674 8.66816C43.6247 8.78293 43.5993 8.90634 43.5993 9.03104C43.5993 9.15574 43.6247 9.27915 43.674 9.39392C43.7233 9.50869 43.7954 9.61245 43.8861 9.69902C43.9725 9.78894 44.0763 9.86061 44.1915 9.90969C44.3066 9.95876 44.4306 9.98424 44.5559 9.98457Z" fill="#FF0066"/>
<path d="M59.2097 38.6516C58.4514 37.8931 57.4322 37.4452 56.3552 37.3972C56.5712 36.7575 56.6358 36.0773 56.5442 35.409C56.4526 34.7407 56.2072 34.1022 55.8269 33.5425C55.4466 32.9829 54.9415 32.5171 54.3506 32.1812C53.7597 31.8452 53.0988 31.6479 52.4187 31.6046C52.6058 31.1267 52.7002 30.6181 52.6969 30.1055C52.6966 29.0961 52.3386 28.1187 51.6853 27.3435C51.0319 26.5683 50.1245 26.0444 49.1211 25.8631L57.9422 17.1335C58.7114 16.2263 59.1081 15.0663 59.0536 13.8834C58.9991 12.7004 58.4975 11.5809 57.6481 10.7467C56.7988 9.9126 55.6637 9.42476 54.4679 9.37992C53.2722 9.33509 52.1031 9.73653 51.1924 10.5047L33.1792 28.2902L32.8597 17.8371C32.8375 17.0292 32.5875 16.2434 32.1379 15.5687C31.6882 14.8939 31.0569 14.357 30.3152 14.0186C29.5735 13.6803 28.7509 13.5539 27.9404 13.6538C27.1299 13.7537 26.3638 14.0758 25.7286 14.5839C24.8354 15.2891 24.261 16.3159 24.1313 17.4394L21.4108 39.8753L18.5151 42.7818C17.9926 42.3166 17.309 42.0687 16.6065 42.0896C15.9041 42.1105 15.2367 42.3986 14.7434 42.894L10.3123 47.2792C10.0549 47.5314 9.85063 47.8316 9.71121 48.1625C9.57178 48.4933 9.5 48.8482 9.5 49.2066C9.5 49.5651 9.57178 49.92 9.71121 50.2508C9.85063 50.5816 10.0549 50.8819 10.3123 51.1341L29.5724 70.2046C30.0899 70.714 30.7901 71 31.5201 71C32.25 71 32.9502 70.714 33.4677 70.2046L37.8989 65.8092C38.3719 65.3434 38.657 64.7228 38.7006 64.0638C38.7442 63.4047 38.5435 62.7526 38.1359 62.2297L40.9698 59.4558L44.4014 57.8853C46.3002 57.0186 48.0276 55.8237 49.5024 54.3567L59.2097 44.7602C59.6185 44.36 59.943 43.8836 60.1645 43.3584C60.386 42.8333 60.5 42.2699 60.5 41.7008C60.5 41.1317 60.386 40.5683 60.1645 40.0432C59.943 39.518 59.6185 39.0416 59.2097 38.6414V38.6516ZM36.5386 64.4733L32.1074 68.8585C32.029 68.9362 31.9358 68.9978 31.8332 69.0399C31.7307 69.0819 31.6208 69.1036 31.5098 69.1036C31.3987 69.1036 31.2888 69.0819 31.1863 69.0399C31.0837 68.9978 30.9905 68.9362 30.9121 68.8585L11.6829 49.7981C11.6043 49.7205 11.542 49.6283 11.4995 49.5268C11.457 49.4253 11.4352 49.3165 11.4352 49.2066C11.4352 49.0968 11.457 48.988 11.4995 48.8865C11.542 48.785 11.6043 48.6928 11.6829 48.6151L16.114 44.2299C16.2738 44.075 16.488 43.9873 16.7117 43.9852C16.8211 43.9854 16.9294 44.0071 17.0303 44.0491C17.1311 44.0911 17.2225 44.1526 17.2991 44.2299L36.5695 63.3005C36.6477 63.3773 36.7098 63.4686 36.7522 63.5693C36.7945 63.6699 36.8163 63.7778 36.8163 63.8869C36.8163 63.9959 36.7945 64.1038 36.7522 64.2045C36.7098 64.3051 36.6477 64.3965 36.5695 64.4733H36.5386ZM57.8494 43.4141L48.1524 53.0105C46.8341 54.3163 45.2918 55.3798 43.5976 56.1516L40.0114 57.7935C39.9085 57.8424 39.8144 57.9078 39.7332 57.9872L36.8272 60.8733L19.896 44.1586L22.9875 41.0991C23.1406 40.9533 23.2357 40.7578 23.2554 40.5484L26.0378 17.6434C26.1145 17.0355 26.4198 16.4785 26.8928 16.0833C27.3658 15.688 27.9718 15.4836 28.5902 15.5106C29.2087 15.5376 29.7941 15.7941 30.2301 16.229C30.6661 16.6639 30.9206 17.2453 30.943 17.8575L31.3243 30.493C31.3379 30.6769 31.4017 30.8536 31.5087 31.0045C31.6158 31.1553 31.7621 31.2746 31.9323 31.3497C32.1064 31.4174 32.2968 31.4333 32.4799 31.3952C32.663 31.3572 32.8309 31.2669 32.9628 31.1355L52.5423 11.759C52.8096 11.4925 53.1273 11.2807 53.4773 11.1357C53.8273 10.9907 54.2027 10.9154 54.5821 10.9139C54.9615 10.9125 55.3375 10.9851 55.6886 11.1275C56.0397 11.2698 56.359 11.4792 56.6283 11.7437C56.8976 12.0082 57.1116 12.3226 57.2581 12.669C57.4047 13.0154 57.4808 13.3869 57.4822 13.7624C57.4837 14.1378 57.4104 14.5099 57.2665 14.8574C57.1226 15.2048 56.911 15.5208 56.6437 15.7873L41.8045 30.4726C41.6294 30.6509 41.532 30.8901 41.5332 31.1387C41.5345 31.3873 41.6344 31.6254 41.8114 31.8019C41.9883 31.9784 42.2282 32.079 42.4794 32.0822C42.7306 32.0853 42.973 31.9907 43.1544 31.8188L46.6582 28.382C47.1269 27.9721 47.7362 27.755 48.3614 27.7751C48.9866 27.7951 49.5805 28.0508 50.0215 28.4898C50.4625 28.9288 50.7173 29.518 50.7338 30.1368C50.7503 30.7557 50.5273 31.3573 50.1104 31.8188L45.5967 36.2856C45.418 36.465 45.3178 36.7067 45.3178 36.9587C45.3178 37.2106 45.418 37.4524 45.5967 37.6317C45.7762 37.808 46.0189 37.9069 46.2717 37.9069C46.5246 37.9069 46.7672 37.808 46.9467 37.6317L50.4504 34.1644C50.9287 33.6951 51.5758 33.4331 52.2493 33.436C52.9228 33.4388 53.5675 33.7063 54.0417 34.1797C54.5159 34.653 54.7807 35.2933 54.7778 35.9599C54.7749 36.6264 54.5046 37.2645 54.0263 37.7337L53.1606 38.5904L49.5539 42.1189C49.3735 42.2974 49.2722 42.5395 49.2722 42.792C49.2722 43.0445 49.3735 43.2866 49.5539 43.4651C49.7343 43.6436 49.9789 43.7439 50.234 43.7439C50.4891 43.7439 50.7338 43.6436 50.9141 43.4651L54.4076 40.0079C54.633 39.7836 54.9012 39.6059 55.1966 39.4851C55.4921 39.3642 55.8088 39.3028 56.1285 39.3042C56.448 39.3039 56.7644 39.3659 57.0597 39.4866C57.355 39.6074 57.6233 39.7845 57.8494 40.0079C58.0775 40.2325 58.2585 40.4995 58.382 40.7935C58.5055 41.0875 58.5691 41.4028 58.5691 41.7212C58.5691 42.0396 58.5055 42.3549 58.382 42.6489C58.2585 42.9429 58.0775 43.2099 57.8494 43.4345V43.4141Z" stroke="#FF0066"/>
<path d="M32.9422 9.69902C33.0296 9.78877 33.1345 9.86016 33.2504 9.90892C33.3664 9.95768 33.4911 9.98281 33.6171 9.98281C33.7431 9.98281 33.8678 9.95768 33.9838 9.90892C34.0998 9.86016 34.2046 9.78877 34.2921 9.69902C34.3828 9.61245 34.4549 9.50869 34.5042 9.39392C34.5535 9.27915 34.5789 9.15574 34.5789 9.03104C34.5789 8.90634 34.5535 8.78293 34.5042 8.66816C34.4549 8.55339 34.3828 8.44963 34.2921 8.36306L30.572 4.68153C30.3925 4.50529 30.1499 4.40639 29.897 4.40639C29.6441 4.40639 29.4015 4.50529 29.222 4.68153C29.1313 4.7681 29.0592 4.87186 29.0099 4.98663C28.9607 5.10139 28.9353 5.22481 28.9353 5.34951C28.9353 5.4742 28.9607 5.59762 29.0099 5.71239C29.0592 5.82716 29.1313 5.93092 29.222 6.01749L32.9422 9.69902Z" stroke="#FF0066"/>
<path d="M39.1252 8.10811C39.3794 8.10811 39.6231 8.00818 39.8028 7.83032C39.9826 7.65245 40.0835 7.41122 40.0835 7.15968V1.94843C40.0835 1.69689 39.9826 1.45565 39.8028 1.27779C39.6231 1.09992 39.3794 1 39.1252 1C38.871 1 38.6272 1.09992 38.4475 1.27779C38.2678 1.45565 38.1668 1.69689 38.1668 1.94843V7.15968C38.1668 7.41122 38.2678 7.65245 38.4475 7.83032C38.6272 8.00818 38.871 8.10811 39.1252 8.10811Z" stroke="#FF0066"/>
<path d="M44.5559 9.98457C44.683 9.98563 44.809 9.96083 44.926 9.91171C45.043 9.86259 45.1485 9.79019 45.2361 9.69902L48.9562 6.01749C49.0469 5.93092 49.119 5.82716 49.1683 5.71239C49.2176 5.59762 49.243 5.4742 49.243 5.34951C49.243 5.22481 49.2176 5.10139 49.1683 4.98663C49.119 4.87186 49.0469 4.7681 48.9562 4.68153C48.7767 4.50529 48.5341 4.40639 48.2812 4.40639C48.0283 4.40639 47.7857 4.50529 47.6062 4.68153L43.8861 8.36306C43.7954 8.44963 43.7233 8.55339 43.674 8.66816C43.6247 8.78293 43.5993 8.90634 43.5993 9.03104C43.5993 9.15574 43.6247 9.27915 43.674 9.39392C43.7233 9.50869 43.7954 9.61245 43.8861 9.69902C43.9725 9.78894 44.0763 9.86061 44.1915 9.90969C44.3066 9.95876 44.4306 9.98424 44.5559 9.98457Z" stroke="#FF0066"/>
</svg>
