<svg width="60" height="70" viewBox="0 0 60 70" fill="none" xmlns="http://www.w3.org/2000/svg">
<path fill-rule="evenodd" clip-rule="evenodd" d="M60 34.9338C60 51.6225 46.5196 65 29.9998 65C13.4801 65 0 51.6225 0 34.9338C0 18.3775 13.4801 5 29.9998 5C46.5196 5 60 18.3775 60 34.9338ZM5.15436 34.9338C5.15436 48.8411 16.2554 59.9669 29.9998 59.9669C35.947 59.9669 41.3654 57.9801 45.8588 54.404C43.8324 55.0221 41.8062 55.3311 39.7797 55.3311C28.5463 55.3311 19.4272 46.1921 19.4272 34.9338C19.4272 23.808 28.5463 14.6689 39.7797 14.6689C41.8062 14.6689 43.8324 14.9779 45.8588 15.596C41.3654 12.0199 35.947 10.0331 29.9998 10.0331C16.2554 10.0331 5.15436 21.159 5.15436 34.9338ZM49.0308 46.9868C48.5903 47.0751 48.1056 47.1192 47.5769 47.1192C40.969 47.1192 35.5507 41.6888 35.5507 34.9338C35.5507 28.3113 40.969 22.8808 47.5769 22.8808C48.1056 22.8808 48.5903 22.925 49.0308 23.0133C46.3876 20.8941 43.2158 19.8345 39.7797 19.8345C31.3216 19.8345 24.5815 26.5894 24.5815 34.9338C24.5815 43.4106 31.3216 50.1656 39.7797 50.1656C43.2158 50.1656 46.3876 49.106 49.0308 46.9868ZM54.8456 34.9338C54.8456 30.9603 51.6738 27.7815 47.5769 27.7815C43.6122 27.7815 40.4405 30.9603 40.4405 34.9338C40.4405 39.0398 43.6122 42.2186 47.5769 42.2186C51.6738 42.2186 54.8456 39.0398 54.8456 34.9338Z" fill="#9D00F5"/>
</svg>
