<svg width="60" height="70" viewBox="0 0 60 70" fill="none" xmlns="http://www.w3.org/2000/svg">
<path fill-rule="evenodd" clip-rule="evenodd" d="M13.2083 34.9298C13.2083 25.5153 20.6556 18.2085 30.0701 18.2085C39.3441 18.2085 46.7916 25.5153 46.7916 34.9298C46.7916 44.4848 39.3441 51.7916 30.0701 51.7916C20.6556 51.7916 13.2083 44.4848 13.2083 34.9298ZM40.4684 34.9298C40.4684 28.7471 35.8312 24.3912 30.0701 24.3912C24.1685 24.3912 19.5315 28.7471 19.5315 34.9298C19.5315 41.1125 24.1685 45.609 30.0701 45.609C35.8312 45.609 40.4684 41.1125 40.4684 34.9298Z" fill="#929497"/>
<path fill-rule="evenodd" clip-rule="evenodd" d="M0 34.9298C0 18.0679 13.3488 5 30.0701 5C46.6509 5 59.9999 18.0679 59.9999 34.9298C59.9999 51.7916 46.6509 65 30.0701 65C13.3488 65 0 51.7916 0 34.9298ZM53.3958 34.9298C53.3958 21.0188 43.138 11.1827 30.0701 11.1827C16.8617 11.1827 6.60415 21.0188 6.60415 34.9298C6.60415 48.8408 16.8617 58.6768 30.0701 58.6768C43.138 58.6768 53.3958 48.8408 53.3958 34.9298Z" fill="#929497"/>
<path d="M14.6134 24.8127C14.6134 21.5809 17.2835 18.9111 20.5153 18.9111C23.7472 18.9111 26.4169 21.5809 26.4169 24.8127C26.4169 28.1851 23.7472 30.7144 20.5153 30.7144C17.2835 30.7144 14.6134 28.1851 14.6134 24.8127Z" fill="#9D00F5"/>
<path d="M33.0211 45.0466C33.0211 41.8148 35.6908 39.145 38.9226 39.145C42.295 39.145 44.8242 41.8148 44.8242 45.0466C44.8242 48.419 42.295 50.9483 38.9226 50.9483C35.6908 50.9483 33.0211 48.419 33.0211 45.0466Z" fill="#9D00F5"/>
<path d="M43.1381 16.1009C43.1381 12.4475 46.0888 9.63721 49.7422 9.63721C53.3956 9.63721 56.2061 12.4475 56.2061 16.1009C56.2061 19.7543 53.3956 22.7051 49.7422 22.7051C46.0888 22.7051 43.1381 19.7543 43.1381 16.1009Z" fill="#9D00F5"/>
<path d="M3.93448 53.6185C3.93448 49.9651 6.74458 47.1548 10.398 47.1548C14.0514 47.1548 17.0025 49.9651 17.0025 53.6185C17.0025 57.2719 14.0514 60.2227 10.398 60.2227C6.74458 60.2227 3.93448 57.2719 3.93448 53.6185Z" fill="#9D00F5"/>
</svg>
