<svg width="83" height="70" viewBox="0 0 83 70" fill="none" xmlns="http://www.w3.org/2000/svg">
<path fill-rule="evenodd" clip-rule="evenodd" d="M0 34.9131C0 18.0435 13.3914 5 30.087 5C46.6088 5 60 18.0435 60 34.9131C60 51.7826 46.6088 65 30.087 65C13.3914 65 0 51.7826 0 34.9131ZM48.6957 34.9131C48.6957 23.7826 40.5218 15.9566 30.087 15.9566C19.4783 15.9566 11.3043 23.7826 11.3043 34.9131C11.3043 46.0435 19.4783 53.8696 30.087 53.8696C40.5218 53.8696 48.6957 46.0435 48.6957 34.9131Z" fill="#929497"/>
<path fill-rule="evenodd" clip-rule="evenodd" d="M11.3043 34.9131C11.3043 18.0435 24.6955 5 41.2173 5C57.9129 5 71.3043 18.0435 71.3043 34.9131C71.3043 51.7826 57.9129 65 41.2173 65C24.6955 65 11.3043 51.7826 11.3043 34.9131ZM59.8261 34.9131C59.8261 23.7826 51.826 15.9566 41.2173 15.9566C30.7825 15.9566 22.6087 23.7826 22.6087 34.9131C22.6087 46.0435 30.7825 53.8696 41.2173 53.8696C51.826 53.8696 59.8261 46.0435 59.8261 34.9131Z" fill="white"/>
<path fill-rule="evenodd" clip-rule="evenodd" d="M22.6087 34.9131C22.6087 18.0435 35.826 5 52.5217 5C69.2173 5 82.4348 18.0435 82.4348 34.9131C82.4348 51.7826 69.2173 65 52.5217 65C35.826 65 22.6087 51.7826 22.6087 34.9131ZM71.1305 34.9131C71.1305 23.7826 62.9564 15.9566 52.5217 15.9566C42.0869 15.9566 33.9131 23.7826 33.9131 34.9131C33.9131 46.0435 42.0869 53.8696 52.5217 53.8696C62.9564 53.8696 71.1305 46.0435 71.1305 34.9131Z" fill="#9D00F5"/>
</svg>
