<svg width="330" height="164" viewBox="0 0 330 164" fill="none" xmlns="http://www.w3.org/2000/svg">
<g clip-path="url(#clip0_64_169)">
<path fill-rule="evenodd" clip-rule="evenodd" d="M64.2539 81.5789C64.2539 25.0917 108.938 -18.749 165.425 -18.749C221.069 -18.749 265.754 25.0917 265.754 81.5789C265.754 138.909 221.069 182.75 165.425 182.75C108.938 182.75 64.2539 138.909 64.2539 81.5789ZM227.815 81.5789C227.815 44.4828 199.992 18.347 165.425 18.347C130.015 18.347 102.193 44.4828 102.193 81.5789C102.193 118.675 130.015 145.654 165.425 145.654C199.992 145.654 227.815 118.675 227.815 81.5789Z" fill="#9D00F5" fill-opacity="0.1"/>
<path fill-rule="evenodd" clip-rule="evenodd" d="M-15 81.5788C-15 -19.5923 65.093 -98 165.421 -98C264.906 -98 345 -19.5923 345 81.5788C345 182.75 264.906 262.001 165.421 262.001C65.093 262.001 -15 182.75 -15 81.5788ZM305.375 81.5788C305.375 -1.88731 243.829 -60.9037 165.421 -60.9037C86.1703 -60.9037 24.6249 -1.88731 24.6249 81.5788C24.6249 165.045 86.1703 224.061 165.421 224.061C243.829 224.061 305.375 165.045 305.375 81.5788Z" fill="#9D00F5" fill-opacity="0.1"/>
<path d="M72.6797 20.8765C72.6797 1.4854 88.7001 -14.5332 108.091 -14.5332C127.482 -14.5332 143.501 1.4854 143.501 20.8765C143.501 41.1107 127.482 56.2865 108.091 56.2865C88.7001 56.2865 72.6797 41.1107 72.6797 20.8765Z" fill="#9D00F5" fill-opacity="0.1"/>
<path d="M183.129 142.28C183.129 122.889 199.147 106.871 218.538 106.871C238.773 106.871 253.948 122.889 253.948 142.28C253.948 162.515 238.773 177.69 218.538 177.69C199.147 177.69 183.129 162.515 183.129 142.28Z" fill="#9D00F5" fill-opacity="0.1"/>
<path d="M243.832 -31.3945C243.832 -53.3149 261.537 -70.1768 283.457 -70.1768C305.377 -70.1768 322.24 -53.3149 322.24 -31.3945C322.24 -9.47407 305.377 8.23072 283.457 8.23072C261.537 8.23072 243.832 -9.47407 243.832 -31.3945Z" fill="#9D00F5" fill-opacity="0.1"/>
<path d="M8.60156 193.711C8.60156 171.791 25.4622 154.929 47.3826 154.929C69.303 154.929 87.0096 171.791 87.0096 193.711C87.0096 215.632 69.303 233.337 47.3826 233.337C25.4622 233.337 8.60156 215.632 8.60156 193.711Z" fill="#9D00F5" fill-opacity="0.1"/>
</g>
<defs>
<clipPath id="clip0_64_169">
<rect width="330" height="164" fill="white"/>
</clipPath>
</defs>
</svg>
