<svg width="1200" height="300" viewBox="0 0 1200 300" fill="none" xmlns="http://www.w3.org/2000/svg">
<g clip-path="url(#clip0_64_145)">
<path fill-rule="evenodd" clip-rule="evenodd" d="M282.898 148.623C282.898 -35.9021 428.866 -179.115 613.391 -179.115C795.161 -179.115 941.133 -35.9021 941.133 148.623C941.133 335.902 795.161 479.115 613.391 479.115C428.866 479.115 282.898 335.902 282.898 148.623ZM817.198 148.623C817.198 27.4422 726.309 -57.9349 613.391 -57.9349C497.718 -57.9349 406.833 27.4422 406.833 148.623C406.833 269.803 497.718 357.935 613.391 357.935C726.309 357.935 817.198 269.803 817.198 148.623Z" fill="#9D00F5" fill-opacity="0.1"/>
<path fill-rule="evenodd" clip-rule="evenodd" d="M24 148.623C24 -181.869 285.637 -438.001 613.375 -438.001C938.359 -438.001 1200 -181.869 1200 148.623C1200 479.115 938.359 738.001 613.375 738.001C285.637 738.001 24 479.115 24 148.623ZM1070.56 148.623C1070.56 -124.033 869.506 -316.82 613.375 -316.82C354.49 -316.82 153.441 -124.033 153.441 148.623C153.441 421.279 354.49 614.066 613.375 614.066C869.506 614.066 1070.56 421.279 1070.56 148.623Z" fill="#9D00F5" fill-opacity="0.1"/>
<path d="M310.422 -49.6705C310.422 -113.015 362.755 -165.342 426.1 -165.342C489.444 -165.342 541.77 -113.015 541.77 -49.6705C541.77 16.4279 489.444 66.0021 426.1 66.0021C362.755 66.0021 310.422 16.4279 310.422 -49.6705Z" fill="#9D00F5" fill-opacity="0.1"/>
<path d="M671.223 346.914C671.223 283.57 723.549 231.243 786.894 231.243C852.992 231.243 902.564 283.57 902.564 346.914C902.564 413.013 852.992 462.587 786.894 462.587C723.549 462.587 671.223 413.013 671.223 346.914Z" fill="#9D00F5" fill-opacity="0.1"/>
</g>
<defs>
<clipPath id="clip0_64_145">
<rect width="1200" height="300" fill="white"/>
</clipPath>
</defs>
</svg>
