<svg width="387" height="236" viewBox="0 0 387 236" fill="none" xmlns="http://www.w3.org/2000/svg">
<g clip-path="url(#clip0_58_3)">
<rect width="386.667" height="236" fill="#FF0066" fill-opacity="0.1"/>
<path fill-rule="evenodd" clip-rule="evenodd" d="M148.177 -32.6731C148.177 136.996 10.8232 273 -157.499 273C-325.822 273 -463.172 136.996 -463.172 -32.6731C-463.172 -200.995 -325.822 -337 -157.499 -337C10.8232 -337 148.177 -200.995 148.177 -32.6731ZM-410.653 -32.6731C-410.653 108.718 -297.543 221.83 -157.499 221.83C-96.9031 221.83 -41.6934 201.631 4.09027 165.274C-16.5573 171.558 -37.2028 174.7 -57.8504 174.7C-172.31 174.7 -265.225 81.7861 -265.225 -32.6731C-265.225 -145.786 -172.31 -238.7 -57.8504 -238.7C-37.2028 -238.7 -16.5573 -235.558 4.09027 -229.274C-41.6934 -265.631 -96.9031 -285.83 -157.499 -285.83C-297.543 -285.83 -410.653 -172.717 -410.653 -32.6731ZM36.4101 89.8656C31.9215 90.7633 26.9828 91.2119 21.5965 91.2119C-45.7325 91.2119 -100.94 36.0024 -100.94 -32.6731C-100.94 -100.002 -45.7325 -155.212 21.5965 -155.212C26.9828 -155.212 31.9215 -154.763 36.4101 -153.865C9.47856 -175.41 -22.8393 -186.183 -57.8504 -186.183C-144.031 -186.183 -212.707 -117.508 -212.707 -32.6731C-212.707 53.5079 -144.031 122.183 -57.8504 122.183C-22.8393 122.183 9.47856 111.411 36.4101 89.8656ZM95.6583 -32.6731C95.6583 -73.0705 63.3404 -105.388 21.5965 -105.388C-18.8009 -105.388 -51.1175 -73.0705 -51.1175 -32.6731C-51.1175 9.07081 -18.8009 41.3887 21.5965 41.3887C63.3404 41.3887 95.6583 9.07081 95.6583 -32.6731Z" fill="#00AEEF"/>
</g>
<defs>
<clipPath id="clip0_58_3">
<rect width="386.667" height="236" fill="white"/>
</clipPath>
</defs>
</svg>
