<svg width="388" height="236" viewBox="0 0 388 236" fill="none" xmlns="http://www.w3.org/2000/svg">
<g clip-path="url(#clip0_58_9)">
<rect width="386.667" height="236" transform="translate(0.667969)" fill="#FF0066" fill-opacity="0.1"/>
<path fill-rule="evenodd" clip-rule="evenodd" d="M402.463 -90.459C402.463 25.2496 308.792 118 194.002 118C79.2114 118 -14.457 25.2496 -14.457 -90.459C-14.457 -205.249 79.2114 -298 194.002 -298C308.792 -298 402.463 -205.249 402.463 -90.459ZM21.3589 -90.459C21.3589 5.96482 98.4962 83.1039 194.002 83.1039C235.326 83.1039 272.977 69.3289 304.2 44.5342C290.12 48.8197 276.04 50.9626 261.959 50.9626C183.902 50.9626 120.536 -12.4016 120.536 -90.459C120.536 -167.598 183.902 -230.963 261.959 -230.963C276.04 -230.963 290.12 -228.82 304.2 -224.534C272.977 -249.329 235.326 -263.104 194.002 -263.104C98.4962 -263.104 21.3589 -185.965 21.3589 -90.459ZM326.242 -6.89164C323.18 -6.27942 319.812 -5.97354 316.139 -5.97354C270.223 -5.97354 232.573 -43.6246 232.573 -90.459C232.573 -136.375 270.223 -174.026 316.139 -174.026C319.812 -174.026 323.18 -173.72 326.242 -173.108C307.875 -187.801 285.835 -195.148 261.959 -195.148C203.186 -195.148 156.352 -148.313 156.352 -90.459C156.352 -31.6864 203.186 15.1481 261.959 15.1481C285.835 15.1481 307.875 7.80153 326.242 -6.89164ZM366.647 -90.459C366.647 -118.009 344.607 -140.048 316.139 -140.048C288.589 -140.048 266.551 -118.009 266.551 -90.459C266.551 -61.991 288.589 -39.9513 316.139 -39.9513C344.607 -39.9513 366.647 -61.991 366.647 -90.459Z" fill="#00AEEF"/>
</g>
<defs>
<clipPath id="clip0_58_9">
<rect width="386.667" height="236" fill="white" transform="translate(0.667969)"/>
</clipPath>
</defs>
</svg>
