<svg width="360" height="800" viewBox="0 0 360 800" fill="none" xmlns="http://www.w3.org/2000/svg">
<g opacity="0.1">
<path d="M668.113 325.534C668.113 448.966 568.071 548.934 444.713 548.934C321.355 548.934 221.312 448.966 221.312 325.534C221.312 202.176 321.355 102.208 444.713 102.208C568.071 102.208 668.113 202.176 668.113 325.534Z" stroke="#9900FF" stroke-width="5.7" stroke-miterlimit="10"/>
<path d="M574.856 325.534C574.856 397.418 516.603 455.671 444.719 455.671C372.834 455.671 314.582 397.418 314.582 325.534C314.582 253.724 372.834 195.471 444.719 195.471C516.603 195.471 574.856 253.724 574.856 325.534Z" stroke="#9900FF" stroke-miterlimit="10"/>
<path d="M660.295 465.653C582.898 584.69 423.709 618.509 304.672 541.113C185.56 463.716 151.815 304.527 229.212 185.49C306.534 66.4519 465.797 32.6327 584.835 110.029C703.872 187.426 737.617 346.615 660.295 465.653Z" stroke="#9900FF" stroke-width="8.5" stroke-miterlimit="10"/>
<path d="M107.193 566.44C107.193 685.552 10.6521 782.093 -108.46 782.093C-227.572 782.093 -324.113 685.552 -324.113 566.44C-324.113 447.402 -227.572 350.861 -108.46 350.861C10.6521 350.861 107.193 447.402 107.193 566.44Z" stroke="#9900FF" stroke-miterlimit="10"/>
<path d="M17.5047 566.44C17.5047 636.015 -38.8852 692.405 -108.46 692.405C-178.036 692.405 -234.426 636.015 -234.426 566.44C-234.426 496.939 -178.036 440.549 -108.46 440.549C-38.8852 440.549 17.5047 496.939 17.5047 566.44Z" stroke="#9900FF" stroke-miterlimit="10"/>
<path d="M87.3023 693.746C17.0568 801.833 -127.606 832.524 -235.693 762.278C-343.855 691.958 -374.546 547.37 -304.226 439.208C-233.98 331.121 -89.3173 300.43 18.7701 370.676C126.932 440.921 157.622 585.584 87.3023 693.746Z" stroke="#9900FF" stroke-width="6" stroke-miterlimit="10"/>
<path d="M156.654 403.303C127.453 448.221 67.4127 460.96 22.4942 431.833C-22.3497 402.633 -35.0879 342.592 -5.96172 297.674C23.239 252.756 83.2793 240.017 128.198 269.218C173.116 298.419 185.854 358.459 156.654 403.303Z" stroke="#9900FF" stroke-width="2.8" stroke-miterlimit="10"/>
<path d="M618.803 325.534C618.803 421.703 540.884 499.621 444.716 499.621C348.621 499.621 270.629 421.703 270.629 325.534C270.629 229.44 348.621 151.521 444.716 151.521C540.884 151.521 618.803 229.44 618.803 325.534Z" stroke="#9900FF" stroke-width="2.8" stroke-miterlimit="10"/>
<path d="M27.863 47.978C67.0456 100.644 56.095 175.135 3.35493 214.318C-49.3106 253.5 -123.802 242.476 -162.985 189.81C-202.093 137.07 -191.143 62.6528 -138.402 23.4702C-85.7369 -15.7124 -11.2451 -4.68758 27.863 47.978Z" stroke="#9900FF" stroke-miterlimit="10"/>
<path d="M15.4953 57.1404C49.6125 103.027 40.0775 167.835 -5.80934 201.952C-51.6962 235.995 -116.504 226.46 -150.621 180.573C-184.664 134.761 -175.129 69.8785 -129.242 35.8358C-83.3553 1.71862 -18.5473 11.2535 15.4953 57.1404Z" stroke="#9900FF" stroke-miterlimit="10"/>
<path d="M191.516 180.126C191.516 214.02 164.029 241.507 130.135 241.507C96.1671 241.507 68.6797 214.02 68.6797 180.126C68.6797 146.232 96.1671 118.745 130.135 118.745C164.029 118.745 191.516 146.232 191.516 180.126Z" stroke="#9900FF" stroke-miterlimit="10"/>
<path d="M205.897 147.648C199.565 185.862 163.436 211.636 125.222 205.304C87.0079 198.973 61.2339 162.919 67.5657 124.704C73.8975 86.4901 110.026 60.6415 148.166 66.9733C186.38 73.3796 212.229 109.433 205.897 147.648Z" stroke="#9900FF" stroke-miterlimit="10"/>
<path d="M538.574 325.534C538.574 377.38 496.561 419.393 444.715 419.393C392.868 419.393 350.93 377.38 350.93 325.534C350.93 273.762 392.868 231.749 444.715 231.749C496.561 231.749 538.574 273.762 538.574 325.534Z" stroke="#9900FF" stroke-miterlimit="10"/>
<path d="M189.728 541.783C189.728 577.539 160.751 606.591 124.995 606.591C89.1647 606.591 60.1875 577.539 60.1875 541.783C60.1875 506.027 89.1647 476.975 124.995 476.975C160.751 476.975 189.728 506.027 189.728 541.783Z" stroke="#9900FF" stroke-miterlimit="10"/>
<path d="M170.587 549.381C166.416 574.559 142.578 591.618 117.4 587.447C92.2219 583.275 75.1633 559.438 79.3348 534.185C83.5063 509.007 107.344 491.948 132.522 496.12C157.775 500.366 174.759 524.129 170.587 549.381Z" stroke="#9900FF" stroke-miterlimit="10"/>
<path d="M109.428 372.613C97.2113 391.459 72.0328 396.748 53.2609 384.531C34.4145 372.315 29.1256 347.211 41.3423 328.365C53.5589 309.593 78.6628 304.229 97.5092 316.446C116.281 328.663 121.645 353.841 109.428 372.613Z" stroke="#9900FF" stroke-width="2.8" stroke-miterlimit="10"/>
<path d="M126.633 383.786C108.234 412.093 70.392 420.138 42.0852 401.739C13.7784 383.339 5.73358 345.498 24.133 317.191C42.5324 288.884 80.3742 280.839 108.681 299.238C136.988 317.638 144.958 355.479 126.633 383.786Z" stroke="#9900FF" stroke-width="1.4" stroke-miterlimit="10"/>
<path d="M144.366 395.332C119.635 433.472 68.6077 444.273 30.5425 419.542C-7.59725 394.736 -18.3985 343.784 6.33268 305.645C31.1384 267.579 82.0909 256.703 120.231 281.509C158.296 306.24 169.172 357.267 144.366 395.332Z" stroke="#9900FF" stroke-width="0.7" stroke-miterlimit="10"/>
</g>
</svg>
