<svg width="1920" height="928" viewBox="0 0 1920 928" fill="none" xmlns="http://www.w3.org/2000/svg">
<g clip-path="url(#clip0_35_5)">
<g opacity="0.1">
<path d="M1857.99 401.784C1857.99 628.825 1673.98 812.705 1447.07 812.705C1220.17 812.705 1036.15 628.825 1036.15 401.784C1036.15 174.88 1220.17 -8.99976 1447.07 -8.99976C1673.98 -8.99976 1857.99 174.88 1857.99 401.784Z" stroke="#9900FF" stroke-width="5.7" stroke-miterlimit="10"/>
<path d="M1686.45 401.784C1686.45 534.008 1579.3 641.157 1447.08 641.157C1314.85 641.157 1207.7 534.008 1207.7 401.784C1207.7 269.697 1314.85 162.548 1447.08 162.548C1579.3 162.548 1686.45 269.697 1686.45 401.784Z" stroke="#9900FF" stroke-miterlimit="10"/>
<path d="M1843.61 659.517C1701.24 878.474 1408.43 940.681 1189.48 798.318C970.381 655.955 908.312 363.145 1050.68 144.188C1192.9 -74.7689 1485.85 -136.976 1704.8 5.3873C1923.76 147.75 1985.83 440.561 1843.61 659.517Z" stroke="#9900FF" stroke-width="8.5" stroke-miterlimit="10"/>
<path d="M826.24 844.904C826.24 1064 648.663 1241.57 429.569 1241.57C210.475 1241.57 32.8984 1064 32.8984 844.904C32.8984 625.947 210.475 448.371 429.569 448.371C648.663 448.371 826.24 625.947 826.24 844.904Z" stroke="#9900FF" stroke-miterlimit="10"/>
<path d="M661.266 844.904C661.266 972.88 557.543 1076.6 429.567 1076.6C301.591 1076.6 197.867 972.88 197.867 844.904C197.867 717.065 301.591 613.342 429.567 613.342C557.543 613.342 661.266 717.065 661.266 844.904Z" stroke="#9900FF" stroke-miterlimit="10"/>
<path d="M599.064 844.904C599.064 938.625 523.155 1014.4 429.571 1014.4C335.987 1014.4 260.078 938.625 260.078 844.904C260.078 751.32 335.987 675.549 429.571 675.549C523.155 675.549 599.064 751.32 599.064 844.904Z" stroke="#9900FF" stroke-miterlimit="10"/>
<path d="M541.103 844.904C541.103 906.563 491.091 956.438 429.569 956.438C368.048 956.438 318.035 906.563 318.035 844.904C318.035 783.382 368.048 733.508 429.569 733.508C491.091 733.508 541.103 783.382 541.103 844.904Z" stroke="#9900FF" stroke-miterlimit="10"/>
<path d="M789.655 1079.07C660.446 1277.89 394.355 1334.34 195.54 1205.13C-3.41239 1075.78 -59.8643 809.828 69.4819 610.876C198.691 412.061 464.783 355.609 663.597 484.818C862.549 614.027 919.001 880.118 789.655 1079.07Z" stroke="#9900FF" stroke-width="6" stroke-miterlimit="10"/>
<path d="M917.218 544.832C863.506 627.455 753.069 650.885 670.446 597.31C587.96 543.599 564.53 433.162 618.104 350.539C671.816 267.916 782.254 244.486 864.876 298.197C947.499 351.909 970.929 462.346 917.218 544.832Z" stroke="#9900FF" stroke-width="2.8" stroke-miterlimit="10"/>
<path d="M1767.29 401.784C1767.29 578.676 1623.96 721.998 1447.07 721.998C1270.32 721.998 1126.86 578.676 1126.86 401.784C1126.86 225.029 1270.32 81.707 1447.07 81.707C1623.96 81.707 1767.29 225.029 1767.29 401.784Z" stroke="#9900FF" stroke-width="2.8" stroke-miterlimit="10"/>
<path d="M680.315 -108.75C752.387 -11.8771 732.244 125.142 635.235 197.214C538.362 269.286 401.343 249.008 329.271 152.135C257.336 55.1254 277.478 -81.7569 374.487 -153.829C471.36 -225.901 608.379 -205.622 680.315 -108.75Z" stroke="#9900FF" stroke-miterlimit="10"/>
<path d="M657.57 -91.8965C720.325 -7.4927 702.786 111.714 618.382 174.469C533.978 237.087 414.772 219.548 352.017 135.144C289.399 50.8774 306.937 -68.4662 391.341 -131.084C475.745 -193.839 594.952 -176.3 657.57 -91.8965Z" stroke="#9900FF" stroke-miterlimit="10"/>
<path d="M981.343 134.322C981.343 196.666 930.783 247.226 868.439 247.226C805.959 247.226 755.398 196.666 755.398 134.322C755.398 71.9787 805.959 21.4186 868.439 21.4186C930.783 21.4186 981.343 71.9787 981.343 134.322Z" stroke="#9900FF" stroke-miterlimit="10"/>
<path d="M1007.79 74.5819C996.143 144.873 929.689 192.282 859.398 180.635C789.107 168.988 741.698 102.671 753.345 32.38C764.992 -37.9108 831.446 -85.4565 901.6 -73.8099C971.891 -62.0262 1019.44 4.29099 1007.79 74.5819Z" stroke="#9900FF" stroke-miterlimit="10"/>
<path d="M414.361 231.332C390.519 248.46 357.223 242.979 340.096 219C323.105 195.159 328.586 161.863 352.428 144.736C376.406 127.608 409.565 133.226 426.692 157.067C443.82 181.046 438.339 214.205 414.361 231.332Z" stroke="#9900FF" stroke-miterlimit="10"/>
<path d="M401.889 213.794C387.639 224.07 367.772 220.782 357.632 206.532C347.493 192.282 350.781 172.414 365.031 162.274C379.281 151.998 399.012 155.287 409.288 169.537C419.428 183.787 416.139 203.654 401.889 213.794Z" stroke="#9900FF" stroke-width="5.7" stroke-miterlimit="10"/>
<path d="M1619.72 401.784C1619.72 497.149 1542.44 574.428 1447.07 574.428C1351.71 574.428 1274.57 497.149 1274.57 401.784C1274.57 306.556 1351.71 229.277 1447.07 229.277C1542.44 229.277 1619.72 306.556 1619.72 401.784Z" stroke="#9900FF" stroke-miterlimit="10"/>
<path d="M1541.21 401.784C1541.21 453.851 1499 495.916 1447.07 495.916C1395.14 495.916 1353.08 453.851 1353.08 401.784C1353.08 349.854 1395.14 307.789 1447.07 307.789C1499 307.789 1541.21 349.854 1541.21 401.784Z" stroke="#9900FF" stroke-miterlimit="10"/>
<path d="M978.058 799.551C978.058 865.32 924.757 918.758 858.988 918.758C793.082 918.758 739.781 865.32 739.781 799.551C739.781 733.782 793.082 680.344 858.988 680.344C924.757 680.344 978.058 733.782 978.058 799.551Z" stroke="#9900FF" stroke-miterlimit="10"/>
<path d="M942.843 813.527C935.17 859.839 891.324 891.217 845.012 883.544C798.699 875.871 767.322 832.025 774.995 785.575C782.668 739.263 826.514 707.885 872.827 715.558C919.276 723.368 950.516 767.077 942.843 813.527Z" stroke="#9900FF" stroke-miterlimit="10"/>
<path d="M830.349 488.38C807.878 523.046 761.565 532.775 727.036 510.303C692.37 487.832 682.642 441.657 705.113 406.991C727.584 372.462 773.76 362.597 808.426 385.068C842.955 407.539 852.821 453.851 830.349 488.38Z" stroke="#9900FF" stroke-width="2.8" stroke-miterlimit="10"/>
<path d="M552.198 421.241C552.198 496.327 491.225 557.301 416.138 557.301C341.051 557.301 280.078 496.327 280.078 421.241C280.078 346.154 341.051 285.318 416.138 285.318C491.225 285.318 552.198 346.154 552.198 421.241Z" stroke="#9900FF" stroke-miterlimit="10"/>
<path d="M510.41 421.241C510.41 473.308 468.207 515.51 416.14 515.51C364.073 515.51 321.871 473.308 321.871 421.241C321.871 369.173 364.073 326.971 416.14 326.971C468.207 326.971 510.41 369.173 510.41 421.241Z" stroke="#9900FF" stroke-width="0.7" stroke-miterlimit="10"/>
<path d="M468.754 421.241C468.754 450.289 445.187 473.856 416.139 473.856C387.091 473.856 363.523 450.289 363.523 421.241C363.523 392.193 387.091 368.762 416.139 368.762C445.187 368.762 468.754 392.193 468.754 421.241Z" stroke="#9900FF" stroke-width="0.7" stroke-miterlimit="10"/>
<path d="M861.999 508.933C828.155 561 758.549 575.798 706.482 541.955C654.414 508.111 639.617 438.505 673.461 386.438C707.304 334.371 776.91 319.572 828.977 353.416C881.045 387.26 895.705 456.866 861.999 508.933Z" stroke="#9900FF" stroke-width="1.4" stroke-miterlimit="10"/>
<path d="M894.61 530.171C849.119 600.325 755.261 620.193 685.244 574.702C615.09 529.075 595.222 435.354 640.712 365.2C686.34 295.183 780.062 275.178 850.215 320.805C920.232 366.296 940.237 460.154 894.61 530.171Z" stroke="#9900FF" stroke-width="0.7" stroke-miterlimit="10"/>
</g>
</g>
<defs>
<clipPath id="clip0_35_5">
<rect width="1920" height="928" fill="white"/>
</clipPath>
</defs>
</svg>
