<svg width="387" height="236" viewBox="0 0 387 236" fill="none" xmlns="http://www.w3.org/2000/svg">
<g clip-path="url(#clip0_58_15)">
<rect width="386.667" height="236" transform="translate(0.332031)" fill="#FF0066" fill-opacity="0.1"/>
<path fill-rule="evenodd" clip-rule="evenodd" d="M172.999 -22.3269C172.999 -191.996 310.353 -328 478.675 -328C646.997 -328 784.348 -191.996 784.348 -22.3269C784.348 145.995 646.997 282 478.675 282C310.353 282 172.999 145.995 172.999 -22.3269ZM731.829 -22.3269C731.829 -163.718 618.719 -276.83 478.675 -276.83C418.079 -276.83 362.869 -256.631 317.086 -220.274C337.733 -226.558 358.379 -229.7 379.026 -229.7C493.485 -229.7 586.401 -136.786 586.401 -22.3269C586.401 90.7857 493.485 183.7 379.026 183.7C358.379 183.7 337.733 180.558 317.086 174.274C362.869 210.631 418.079 230.83 478.675 230.83C618.719 230.83 731.829 117.717 731.829 -22.3269ZM284.766 -144.866C289.254 -145.763 294.193 -146.212 299.579 -146.212C366.908 -146.212 422.116 -91.0024 422.116 -22.3269C422.116 45.0021 366.908 100.212 299.579 100.212C294.193 100.212 289.254 99.7629 284.766 98.8652C311.697 120.41 344.015 131.183 379.026 131.183C465.207 131.183 533.883 62.5076 533.883 -22.3269C533.883 -108.508 465.207 -177.183 379.026 -177.183C344.015 -177.183 311.697 -166.411 284.766 -144.866ZM225.517 -22.3269C225.517 18.0705 257.835 50.3883 299.579 50.3883C339.977 50.3883 372.293 18.0705 372.293 -22.3269C372.293 -64.0708 339.977 -96.3887 299.579 -96.3887C257.835 -96.3887 225.517 -64.0708 225.517 -22.3269Z" fill="#00AEEF"/>
</g>
<defs>
<clipPath id="clip0_58_15">
<rect width="386.667" height="236" fill="white" transform="translate(0.332031)"/>
</clipPath>
</defs>
</svg>
