<svg width="1920" height="534" viewBox="0 0 1920 534" fill="none" xmlns="http://www.w3.org/2000/svg">
<g clip-path="url(#clip0_65_185)">
<g opacity="0.1">
<path d="M1857.99 129.784C1857.99 356.825 1673.98 540.704 1447.07 540.704C1220.17 540.704 1036.15 356.825 1036.15 129.784C1036.15 -97.1201 1220.17 -281 1447.07 -281C1673.98 -281 1857.99 -97.1201 1857.99 129.784Z" stroke="#9900FF" stroke-width="5.7" stroke-miterlimit="10"/>
<path d="M1686.45 129.784C1686.45 262.007 1579.3 369.156 1447.08 369.156C1314.85 369.156 1207.7 262.007 1207.7 129.784C1207.7 -2.30296 1314.85 -109.452 1447.08 -109.452C1579.3 -109.452 1686.45 -2.30296 1686.45 129.784Z" stroke="#9900FF" stroke-miterlimit="10"/>
<path d="M1843.61 387.518C1701.24 606.474 1408.43 668.681 1189.48 526.318C970.381 383.955 908.312 91.1447 1050.68 -127.812C1192.9 -346.769 1485.85 -408.976 1704.8 -266.613C1923.76 -124.25 1985.83 168.561 1843.61 387.518Z" stroke="#9900FF" stroke-width="8.5" stroke-miterlimit="10"/>
<path d="M826.24 572.904C826.24 791.997 648.663 969.574 429.569 969.574C210.475 969.574 32.8984 791.997 32.8984 572.904C32.8984 353.947 210.475 176.37 429.569 176.37C648.663 176.37 826.24 353.947 826.24 572.904Z" stroke="#9900FF" stroke-miterlimit="10"/>
<path d="M661.266 572.904C661.266 700.88 557.543 804.604 429.567 804.604C301.591 804.604 197.867 700.88 197.867 572.904C197.867 445.065 301.591 341.342 429.567 341.342C557.543 341.342 661.266 445.065 661.266 572.904Z" stroke="#9900FF" stroke-miterlimit="10"/>
<path d="M599.064 572.904C599.064 666.626 523.155 742.398 429.571 742.398C335.987 742.398 260.078 666.626 260.078 572.904C260.078 479.32 335.987 403.549 429.571 403.549C523.155 403.549 599.064 479.32 599.064 572.904Z" stroke="#9900FF" stroke-miterlimit="10"/>
<path d="M541.103 572.904C541.103 634.563 491.091 684.438 429.569 684.438C368.048 684.438 318.035 634.563 318.035 572.904C318.035 511.383 368.048 461.508 429.569 461.508C491.091 461.508 541.103 511.383 541.103 572.904Z" stroke="#9900FF" stroke-miterlimit="10"/>
<path d="M789.655 807.07C660.446 1005.88 394.355 1062.34 195.54 933.128C-3.41239 803.781 -59.8643 537.827 69.4819 338.875C198.691 140.06 464.783 83.6083 663.597 212.817C862.549 342.027 919.001 608.118 789.655 807.07Z" stroke="#9900FF" stroke-width="6" stroke-miterlimit="10"/>
<path d="M917.218 272.832C863.506 355.455 753.069 378.885 670.446 325.311C587.96 271.599 564.53 161.162 618.104 78.5391C671.816 -4.08349 782.254 -27.514 864.876 26.1975C947.499 79.9091 970.929 190.347 917.218 272.832Z" stroke="#9900FF" stroke-width="2.8" stroke-miterlimit="10"/>
<path d="M1767.29 129.784C1767.29 306.676 1623.96 449.998 1447.07 449.998C1270.32 449.998 1126.86 306.676 1126.86 129.784C1126.86 -46.9709 1270.32 -190.293 1447.07 -190.293C1623.96 -190.293 1767.29 -46.9709 1767.29 129.784Z" stroke="#9900FF" stroke-width="2.8" stroke-miterlimit="10"/>
<path d="M1619.72 129.784C1619.72 225.15 1542.44 302.429 1447.07 302.429C1351.71 302.429 1274.57 225.15 1274.57 129.784C1274.57 34.5561 1351.71 -42.7227 1447.07 -42.7227C1542.44 -42.7227 1619.72 34.5561 1619.72 129.784Z" stroke="#9900FF" stroke-miterlimit="10"/>
<path d="M1541.21 129.784C1541.21 181.852 1499 223.917 1447.07 223.917C1395.14 223.917 1353.08 181.852 1353.08 129.784C1353.08 77.8541 1395.14 35.7891 1447.07 35.7891C1499 35.7891 1541.21 77.8541 1541.21 129.784Z" stroke="#9900FF" stroke-miterlimit="10"/>
<path d="M978.058 527.55C978.058 593.32 924.757 646.757 858.988 646.757C793.082 646.757 739.781 593.32 739.781 527.55C739.781 461.781 793.082 408.344 858.988 408.344C924.757 408.344 978.058 461.781 978.058 527.55Z" stroke="#9900FF" stroke-miterlimit="10"/>
<path d="M942.843 541.527C935.17 587.839 891.324 619.217 845.012 611.544C798.699 603.871 767.322 560.025 774.995 513.575C782.668 467.263 826.514 435.885 872.827 443.558C919.276 451.368 950.516 495.077 942.843 541.527Z" stroke="#9900FF" stroke-miterlimit="10"/>
<path d="M830.349 216.38C807.878 251.046 761.565 260.775 727.036 238.303C692.37 215.832 682.642 169.657 705.113 134.991C727.584 100.462 773.76 90.5968 808.426 113.068C842.955 135.539 852.821 181.851 830.349 216.38Z" stroke="#9900FF" stroke-width="2.8" stroke-miterlimit="10"/>
<path d="M552.198 149.241C552.198 224.328 491.225 285.302 416.138 285.302C341.051 285.302 280.078 224.328 280.078 149.241C280.078 74.1548 341.051 13.3184 416.138 13.3184C491.225 13.3184 552.198 74.1548 552.198 149.241Z" stroke="#9900FF" stroke-miterlimit="10"/>
<path d="M510.41 149.24C510.41 201.307 468.207 243.509 416.14 243.509C364.073 243.509 321.871 201.307 321.871 149.24C321.871 97.1727 364.073 54.9707 416.14 54.9707C468.207 54.9707 510.41 97.1727 510.41 149.24Z" stroke="#9900FF" stroke-width="0.7" stroke-miterlimit="10"/>
<path d="M468.754 149.24C468.754 178.288 445.187 201.856 416.139 201.856C387.091 201.856 363.523 178.288 363.523 149.24C363.523 120.192 387.091 96.7617 416.139 96.7617C445.187 96.7617 468.754 120.192 468.754 149.24Z" stroke="#9900FF" stroke-width="0.7" stroke-miterlimit="10"/>
<path d="M861.999 236.932C828.155 289 758.549 303.798 706.482 269.954C654.414 236.11 639.617 166.505 673.461 114.437C707.304 62.3699 776.91 47.5717 828.977 81.4155C881.045 115.259 895.705 184.865 861.999 236.932Z" stroke="#9900FF" stroke-width="1.4" stroke-miterlimit="10"/>
<path d="M894.61 258.17C849.119 328.324 755.261 348.192 685.244 302.702C615.09 257.074 595.222 163.353 640.712 93.1994C686.34 23.1825 780.062 3.17752 850.215 48.8049C920.232 94.2953 940.237 188.154 894.61 258.17Z" stroke="#9900FF" stroke-width="0.7" stroke-miterlimit="10"/>
</g>
</g>
<defs>
<clipPath id="clip0_65_185">
<rect width="1920" height="534" fill="white"/>
</clipPath>
</defs>
</svg>
