<svg width="360" height="501" viewBox="0 0 360 501" fill="none" xmlns="http://www.w3.org/2000/svg">
<g clip-path="url(#clip0_65_270)">
<g opacity="0.1">
<path d="M1103.37 467.471C975.462 664.19 712.389 720.079 515.67 592.174C318.828 464.27 263.062 201.198 390.967 4.47888C518.748 -192.24 781.943 -248.129 978.662 -120.225C1175.38 7.67951 1231.15 270.752 1103.37 467.471Z" stroke="#9900FF" stroke-width="8.5" stroke-miterlimit="10"/>
<path d="M189.326 634.032C189.326 830.874 29.7838 990.416 -167.058 990.416C-363.901 990.416 -523.443 830.874 -523.443 634.032C-523.443 437.312 -363.901 277.771 -167.058 277.771C29.7838 277.771 189.326 437.312 189.326 634.032Z" stroke="#9900FF" stroke-miterlimit="10"/>
<path d="M41.1066 634.03C41.1066 749.009 -52.0821 842.198 -167.061 842.198C-282.039 842.198 -375.229 749.009 -375.229 634.03C-375.229 519.175 -282.039 425.985 -167.061 425.985C-52.0821 425.985 41.1066 519.175 41.1066 634.03Z" stroke="#9900FF" stroke-miterlimit="10"/>
<path d="M156.456 844.414C40.3698 1023.04 -198.697 1073.76 -377.32 957.669C-556.066 841.46 -606.784 602.516 -490.575 423.77C-374.488 245.147 -135.422 194.429 43.2012 310.515C221.947 426.602 272.666 665.668 156.456 844.414Z" stroke="#9900FF" stroke-width="6" stroke-miterlimit="10"/>
<path d="M271.062 364.434C222.806 438.665 123.584 459.716 49.3531 411.582C-24.7551 363.326 -45.806 264.104 2.32742 189.873C50.5839 115.642 149.805 94.5909 224.037 142.847C298.268 191.104 319.319 290.325 271.062 364.434Z" stroke="#9900FF" stroke-width="2.8" stroke-miterlimit="10"/>
<path d="M58.2205 -222.767C122.973 -135.733 104.876 -12.6298 17.719 52.1226C-69.315 116.875 -192.418 98.6558 -257.17 11.6217C-321.8 -75.5355 -303.703 -198.516 -216.546 -263.268C-129.512 -328.021 -6.40872 -309.801 58.2205 -222.767Z" stroke="#9900FF" stroke-miterlimit="10"/>
<path d="M37.7856 -207.626C94.1669 -131.794 78.4096 -24.6941 2.57793 31.6873C-73.2537 87.9455 -180.353 72.188 -236.735 -3.64363C-292.993 -79.3522 -277.236 -186.575 -201.405 -242.833C-125.573 -299.215 -18.4726 -283.458 37.7856 -207.626Z" stroke="#9900FF" stroke-miterlimit="10"/>
<path d="M328.676 -4.38359C328.676 51.6285 283.251 97.0535 227.239 97.0535C171.104 97.0535 125.679 51.6285 125.679 -4.38359C125.679 -60.3956 171.104 -105.821 227.239 -105.821C283.251 -105.821 328.676 -60.3956 328.676 -4.38359Z" stroke="#9900FF" stroke-miterlimit="10"/>
<path d="M352.437 -58.0554C341.974 5.09658 282.268 47.6905 219.116 37.2267C155.964 26.763 113.371 -32.8192 123.834 -95.9712C134.298 -159.123 194.003 -201.84 257.032 -191.376C320.184 -180.789 362.901 -121.207 352.437 -58.0554Z" stroke="#9900FF" stroke-miterlimit="10"/>
<path d="M325.725 593.284C325.725 652.373 277.838 700.383 218.748 700.383C159.535 700.383 111.648 652.373 111.648 593.284C111.648 534.194 159.535 486.184 218.748 486.184C277.838 486.184 325.725 534.194 325.725 593.284Z" stroke="#9900FF" stroke-miterlimit="10"/>
<path d="M193.019 313.717C172.83 344.862 131.221 353.603 100.199 333.414C69.0535 313.225 60.3131 271.739 80.5021 240.594C100.691 209.572 142.177 200.708 173.322 220.897C204.345 241.086 213.208 282.695 193.019 313.717Z" stroke="#9900FF" stroke-width="2.8" stroke-miterlimit="10"/>
<path d="M221.452 332.179C191.046 378.958 128.509 392.254 81.7298 361.847C34.9505 331.441 21.6558 268.904 52.0623 222.125C82.4689 175.345 145.005 162.05 191.785 192.457C238.564 222.863 251.735 285.4 221.452 332.179Z" stroke="#9900FF" stroke-width="1.4" stroke-miterlimit="10"/>
<path d="M250.751 351.261C209.881 414.29 125.555 432.14 62.649 391.27C-0.37987 350.277 -18.2299 266.074 22.6405 203.045C63.6339 140.139 147.837 122.166 210.866 163.159C273.772 204.03 291.745 288.356 250.751 351.261Z" stroke="#9900FF" stroke-width="0.7" stroke-miterlimit="10"/>
</g>
</g>
<defs>
<clipPath id="clip0_65_270">
<rect width="360" height="501" fill="white"/>
</clipPath>
</defs>
</svg>
